<svg xmlns="http://www.w3.org/2000/svg" width="1200" height="630" viewBox="0 0 1200 630">
  <rect width="1200" height="630" fill="#0f0f13"/>
  <g
    transform="translate(480 120) scale(10)"
    fill="none"
    stroke="#00c9a7"
    stroke-width="2.5"
    stroke-linecap="round"
    stroke-linejoin="round"
  >
    <path d="M17.596 12.768a2 2 0 1 0 2.829-2.829l-1.768-1.767a2 2 0 0 0 2.828-2.829l-2.828-2.828a2 2 0 0 0-2.829 2.828l-1.767-1.768a2 2 0 1 0-2.829 2.829z" />
    <path d="m2.5 21.5 1.4-1.4" />
    <path d="m20.1 3.9 1.4-1.4" />
    <path d="M5.343 21.485a2 2 0 1 0 2.829-2.828l1.767 1.768a2 2 0 1 0 2.829-2.829l-6.364-6.364a2 2 0 1 0-2.829 2.829l1.768 1.767a2 2 0 0 0-2.828 2.829z" />
    <path d="m9.6 14.4 4.8-4.8" />
  </g>
  <text
    x="600"
    y="420"
    text-anchor="middle"
    fill="#fafafa"
    font-family="system-ui, -apple-system, BlinkMacSystemFont, 'Segoe UI', sans-serif"
    font-weight="700"
    font-size="72"
  >GymLogic</text>
  <text
    x="600"
    y="490"
    text-anchor="middle"
    fill="#a1a1aa"
    font-family="system-ui, -apple-system, BlinkMacSystemFont, 'Segoe UI', sans-serif"
    font-size="28"
  >Track your strength training</text>
</svg>
